
<svg xmlns="http://www.w3.org/2000/svg" xmlns:xlink="http://www.w3.org/1999/xlink" version="1.1" id="Layer_1" viewBox="0 0 512 512" width="58px" height="58px">
<path d="M499.86,345.896c-15.234-32.668-39.308-54.305-67.789-60.924c-37.996-8.827-52.009,6.792-63.108,23.549    c-0.695,1.049-1.332,1.993-1.946,2.891c-59.334-60.428-93.08-142.443-93.08-227.478V16.669c0-22.199-34.611-22.252-34.611,0    v67.264c0,85.388-34.034,167.726-93.828,228.225c-0.767-1.097-1.572-2.295-2.462-3.638    c-11.099-16.757-25.117-32.376-63.108-23.548c-28.481,6.619-52.554,28.255-67.789,60.923    c-27.262,58.465-2.033,127.834,56.455,155.106c28.236,13.167,59.92,14.564,89.22,3.911c29.303-10.656,52.703-32.094,65.886-60.364    c15.233-32.668,16.332-65.018,3.096-91.092c-13.021-25.647-27.844-32.752-42.741-33.809    c33.141-37.919,57.797-82.377,72.578-130.117c14.772,47.709,39.406,92.139,72.514,130.041c-15.3,0.761-30.57,7.549-43.941,33.884    c-13.237,26.073-12.137,58.423,3.096,91.092c27.256,58.45,96.606,83.733,155.105,56.454    C501.851,473.748,527.14,404.398,499.86,345.896z M197.058,368.553c11.466,22.584,2.676,48.477-3.585,61.902    c-9.417,20.194-26.13,35.507-47.06,43.118c-20.919,7.607-43.554,6.615-63.73-2.793c-41.748-19.467-59.811-69.001-40.324-110.79    c6.26-13.425,20.446-36.802,45.115-42.536c19.701-4.581,21.65,0.262,27.759,9.482c14.611,22.06,28.572,29.645,56.718,26.449    C183.44,352.078,188.06,350.828,197.058,368.553z M429.313,470.779c-41.751,19.467-91.303,1.465-110.79-40.324    c-6.26-13.424-15.051-39.318-3.585-61.902c8.98-17.691,13.625-16.474,25.106-15.169c29.592,3.36,42.081-4.349,56.718-26.449    c6.256-9.443,8.198-14.027,27.759-9.482c24.668,5.733,38.854,29.11,45.115,42.536C489.111,401.75,471.092,451.298,429.313,470.779    z" fill="#d60056"/>
</svg>
