<?xml version="1.0" encoding="iso-8859-1"?>
<!-- Generator: Adobe Illustrator 19.0.0, SVG Export Plug-In . SVG Version: 6.00 Build 0)  -->
<svg version="1.1" id="Layer_1" xmlns="http://www.w3.org/2000/svg" xmlns:xlink="http://www.w3.org/1999/xlink" x="0px" y="0px"
	 viewBox="0 0 512.002 512.002" style="enable-background:new 0 0 512.002 512.002;" xml:space="preserve">
<g>
	<g>
		<path d="M456.934,41.282C430.312,14.66,394.916,0,357.271,0c-37.647,0-73.041,14.66-99.661,41.282
			c-26.62,26.62-41.282,62.016-41.282,99.663c0,29.519,9.05,57.632,25.774,81.236L130.15,334.148
			c-0.051,0.05-0.107,0.093-0.158,0.142c-0.051,0.051-0.093,0.107-0.144,0.158l-67.467,67.477c-0.074,0.072-0.155,0.133-0.229,0.205
			c-0.074,0.074-0.134,0.154-0.206,0.229l-41.133,41.138c-9.365,9.367-9.365,24.554,0.003,33.92
			c4.684,4.683,10.821,7.024,16.959,7.024c6.139,0,12.279-2.343,16.962-7.026l24.388-24.391l51.952,51.952
			c4.684,4.683,10.822,7.026,16.959,7.026s12.277-2.341,16.959-7.026c9.367-9.367,9.367-24.553,0-33.92l-51.953-51.953
			l33.918-33.923l24.388,24.388c4.683,4.683,10.822,7.024,16.959,7.024c6.139,0,12.277-2.343,16.961-7.026
			c9.365-9.367,9.365-24.553-0.002-33.92l-24.39-24.388l95.141-95.154c23.609,16.732,51.728,25.786,81.25,25.786
			c37.646,0,73.04-14.66,99.662-41.28c26.62-26.619,41.282-62.014,41.282-99.663S483.556,67.902,456.934,41.282z M423.014,206.687
			c-17.56,17.56-40.909,27.231-65.742,27.231s-48.181-9.671-65.742-27.231c-17.56-17.56-27.233-40.907-27.233-65.742
			c0-24.834,9.672-48.181,27.231-65.742c17.56-17.562,40.909-27.233,65.742-27.233s48.181,9.671,65.743,27.231
			c17.56,17.56,27.231,40.907,27.231,65.743C450.247,165.781,440.576,189.128,423.014,206.687z"/>
	</g>
</g>
<g>
</g>
<g>
</g>
<g>
</g>
<g>
</g>
<g>
</g>
<g>
</g>
<g>
</g>
<g>
</g>
<g>
</g>
<g>
</g>
<g>
</g>
<g>
</g>
<g>
</g>
<g>
</g>
<g>
</g>
</svg>
