
<svg viewBox="0 0 490.011 490.011" width="62px" height="62px">
			<path d="M490,117.368H245.003h-245v10H0c0,65,25.483,127.104,71.755,173.375c46.272,46.272,107.794,71.899,173.234,71.899     s126.961-25.626,173.234-71.899c46.238-46.237,71.716-108.283,71.754-173.231l0.034-0.112L490,117.368z M432.518,132.368     L432.518,132.368c-1.243,46.897-19.926,89.701-49.807,122.065L260.645,132.368H432.518z M253.003,146.609l118.758,118.759     c-31.574,29.051-73.078,47.478-118.758,49.418V146.609z M237.003,146.579v168.206c-45.691-1.933-87.206-20.362-118.787-49.419     L237.003,146.579z M229.332,132.368L107.268,254.433c-29.881-32.364-48.564-75.168-49.808-122.065H229.332z M244.989,356.883     c-124.889,0-226.791-99.837-229.453-224.515h26.443h0.001c2.663,109.698,92.705,198.074,203.009,198.074     c110.303,0,200.346-88.376,203.01-198.074h26.442C471.78,257.047,369.878,356.883,244.989,356.883z" fill="#ff5000"/>
</svg>
