<!-- MODAL -->
<svg width="64" version="1.1" xmlns="http://www.w3.org/2000/svg" height="64" viewBox="0 0 64 64" xmlns:xlink="http://www.w3.org/1999/xlink" enable-background="new 0 0 64 64">
  <symbol id="modal-cancel-icon">
    <path fill="#1D1D1B" d="M28.941,31.786L0.613,60.114c-0.787,0.787-0.787,2.062,0,2.849c0.393,0.394,0.909,0.59,1.424,0.59   c0.516,0,1.031-0.196,1.424-0.59l28.541-28.541l28.541,28.541c0.394,0.394,0.909,0.59,1.424,0.59c0.515,0,1.031-0.196,1.424-0.59   c0.787-0.787,0.787-2.062,0-2.849L35.064,31.786L63.41,3.438c0.787-0.787,0.787-2.062,0-2.849c-0.787-0.786-2.062-0.786-2.848,0   L32.003,29.15L3.441,0.59c-0.787-0.786-2.061-0.786-2.848,0c-0.787,0.787-0.787,2.062,0,2.849L28.941,31.786z"/>
  </symbol>
</svg>
<svg id="modal-accept-icon" version="1.1" id="Layer_1" xmlns="http://www.w3.org/2000/svg" xmlns:xlink="http://www.w3.org/1999/xlink" x="0px" y="0px"
  viewBox="0 0 511.999 511.999" style="enable-background:new 0 0 511.999 511.999;" xml:space="preserve">
  <path d="M506.231,75.508c-7.689-7.69-20.158-7.69-27.849,0l-319.21,319.211L33.617,269.163c-7.689-7.691-20.158-7.691-27.849,0
    c-7.69,7.69-7.69,20.158,0,27.849l139.481,139.481c7.687,7.687,20.16,7.689,27.849,0l333.133-333.136
    C513.921,95.666,513.921,83.198,506.231,75.508z"/>

  </svg>
