<svg xmlns="http://www.w3.org/2000/svg">

  <!-- Icon Apps -->
  <symbol id="icon-appleapp">
    <path fill="currentColor" d="M446.159,164.277c-19.583-24.847-56.468-51.494-120.954-37.356c-20.505,4.496-38.058,14.516-52.163,22.568    c-0.853,0.486-1.752,1-2.671,1.52c-0.451-8.417-1.146-17.354-2.09-26.515c15.713-0.406,51.02-4.101,74.63-27.711    c30.487-30.486,27.772-80.494,27.642-82.607l-0.817-13.243l-13.244-0.818c-2.11-0.131-52.122-2.847-82.609,27.641    c-8.069,8.069-13.811,17.506-17.891,27.06c-4.481-16.438-10.01-30.791-16.651-40.775l-25.003,16.632    c13.583,20.419,23.365,73.639,25.961,119.583c-0.456-0.26-0.907-0.517-1.343-0.766c-14.105-8.052-31.658-18.072-52.163-22.568    c-64.49-14.14-101.37,12.51-120.954,37.356c-22.165,28.12-34.37,70.039-34.367,118.035c0.002,45.295,10.564,92.012,29.739,131.542    c14.128,29.123,31.901,52.435,52.825,69.287C137.813,502.292,164.345,512,192.895,512c31.286,0,43.853-5.675,53.029-9.818    c4.506-2.034,6.371-2.877,10.077-2.877c3.706,0,5.57,0.843,10.077,2.877c9.176,4.143,21.742,9.818,53.029,9.818    c28.55,0,55.082-9.708,78.858-28.857c20.924-16.851,38.698-40.163,52.826-69.287c19.175-39.531,29.737-86.247,29.739-131.542    C480.529,234.316,468.324,192.398,446.159,164.277z M295.116,48.988c12.637-12.636,31.726-16.904,44.863-18.302    c-1.399,13.145-5.67,32.229-18.302,44.863c-12.656,12.656-31.785,16.917-44.924,18.31    C278.296,79.905,283.021,61.084,295.116,48.988z M423.77,400.748c-34.28,70.669-80.29,81.221-104.665,81.221    c-24.821,0-33.241-3.802-40.671-7.156c-5.748-2.596-12.264-5.537-22.435-5.537s-16.687,2.942-22.435,5.537    c-7.429,3.355-15.849,7.156-40.671,7.156c-24.376,0-70.385-10.552-104.665-81.221c-16.985-35.013-26.726-78.181-26.728-118.436    c-0.002-41.281,9.914-76.599,27.922-99.446c20.76-26.338,51.36-35.291,90.939-26.612c16.031,3.514,31.378,12.275,43.71,19.314    c12.478,7.123,22.335,12.748,31.929,12.748c9.595,0,19.452-5.625,31.929-12.748c12.332-7.039,27.679-15.799,43.71-19.314    c39.583-8.681,70.177,0.273,90.939,26.612c18.008,22.846,27.923,58.164,27.922,99.446    C450.496,322.566,440.754,365.735,423.77,400.748z"/>
  </symbol>

  <symbol id="icon-userapp">
    <path fill="currentColor" d="M430.75,471.2v-67.8c0-83.9-55-155.2-130.7-179.8c36.4-20.5,61.1-59.5,61.1-104.2c0-65.8-53.6-119.4-119.4-119.4
      s-119.4,53.6-119.4,119.4c0,44.7,24.7,83.7,61.1,104.2c-75.8,24.6-130.7,95.9-130.7,179.8v67.8c0,6.8,5.5,12.3,12.3,12.3h353.6
      C425.25,483.4,430.75,478,430.75,471.2z M146.75,119.4c0-52.3,42.6-94.9,94.9-94.9s94.9,42.6,94.9,94.9s-42.6,94.9-94.9,94.9
      S146.75,171.7,146.75,119.4z M406.25,458.9H77.05v-55.6c0-90.7,73.8-164.6,164.6-164.6s164.6,73.8,164.6,164.6V458.9z"/>
  </symbol>

  <symbol id="icon-tradapp">
    <path fill="currentColor" d="M50.688,48.222C55.232,43.101,58,36.369,58,29c0-7.667-2.996-14.643-7.872-19.834c0,0,0-0.001,0-0.001
    	c-0.004-0.006-0.01-0.008-0.013-0.013c-5.079-5.399-12.195-8.855-20.11-9.126l-0.001-0.001L29.439,0.01C29.293,0.005,29.147,0,29,0
    	s-0.293,0.005-0.439,0.01l-0.563,0.015l-0.001,0.001c-7.915,0.271-15.031,3.727-20.11,9.126c-0.004,0.005-0.01,0.007-0.013,0.013
    	c0,0,0,0.001-0.001,0.002C2.996,14.357,0,21.333,0,29c0,7.369,2.768,14.101,7.312,19.222c0.006,0.009,0.006,0.019,0.013,0.028
    	c0.018,0.025,0.044,0.037,0.063,0.06c5.106,5.708,12.432,9.385,20.608,9.665l0.001,0.001l0.563,0.015C28.707,57.995,28.853,58,29,58
    	s0.293-0.005,0.439-0.01l0.563-0.015l0.001-0.001c8.185-0.281,15.519-3.965,20.625-9.685c0.013-0.017,0.034-0.022,0.046-0.04
    	C50.682,48.241,50.682,48.231,50.688,48.222z M2.025,30h12.003c0.113,4.239,0.941,8.358,2.415,12.217
    	c-2.844,1.029-5.563,2.409-8.111,4.131C4.585,41.891,2.253,36.21,2.025,30z M8.878,11.023c2.488,1.618,5.137,2.914,7.9,3.882
    	C15.086,19.012,14.15,23.44,14.028,28H2.025C2.264,21.493,4.812,15.568,8.878,11.023z M55.975,28H43.972
    	c-0.122-4.56-1.058-8.988-2.75-13.095c2.763-0.968,5.412-2.264,7.9-3.882C53.188,15.568,55.736,21.493,55.975,28z M28,14.963
    	c-2.891-0.082-5.729-0.513-8.471-1.283C21.556,9.522,24.418,5.769,28,2.644V14.963z M28,16.963V28H16.028
    	c0.123-4.348,1.035-8.565,2.666-12.475C21.7,16.396,24.821,16.878,28,16.963z M30,16.963c3.179-0.085,6.3-0.566,9.307-1.438
    	c1.631,3.91,2.543,8.127,2.666,12.475H30V16.963z M30,14.963V2.644c3.582,3.125,6.444,6.878,8.471,11.036
    	C35.729,14.45,32.891,14.881,30,14.963z M40.409,13.072c-1.921-4.025-4.587-7.692-7.888-10.835
    	c5.856,0.766,11.125,3.414,15.183,7.318C45.4,11.017,42.956,12.193,40.409,13.072z M17.591,13.072
    	c-2.547-0.879-4.991-2.055-7.294-3.517c4.057-3.904,9.327-6.552,15.183-7.318C22.178,5.38,19.512,9.047,17.591,13.072z M16.028,30
    	H28v10.038c-3.307,0.088-6.547,0.604-9.661,1.541C16.932,37.924,16.141,34.019,16.028,30z M28,42.038v13.318
    	c-3.834-3.345-6.84-7.409-8.884-11.917C21.983,42.594,24.961,42.124,28,42.038z M30,55.356V42.038
    	c3.039,0.085,6.017,0.556,8.884,1.4C36.84,47.947,33.834,52.011,30,55.356z M30,40.038V30h11.972
    	c-0.113,4.019-0.904,7.924-2.312,11.58C36.547,40.642,33.307,40.126,30,40.038z M43.972,30h12.003
    	c-0.228,6.21-2.559,11.891-6.307,16.348c-2.548-1.722-5.267-3.102-8.111-4.131C43.032,38.358,43.859,34.239,43.972,30z
    	 M9.691,47.846c2.366-1.572,4.885-2.836,7.517-3.781c1.945,4.36,4.737,8.333,8.271,11.698C19.328,54.958,13.823,52.078,9.691,47.846
    	z M32.521,55.763c3.534-3.364,6.326-7.337,8.271-11.698c2.632,0.945,5.15,2.209,7.517,3.781
    	C44.177,52.078,38.672,54.958,32.521,55.763z"/>
  </symbol>

  <!-- MODAL -->
  <symbol id="modal-cancel-icon">
    <path fill="currentColor" d="M28.941,31.786L0.613,60.114c-0.787,0.787-0.787,2.062,0,2.849c0.393,0.394,0.909,0.59,1.424,0.59   c0.516,0,1.031-0.196,1.424-0.59l28.541-28.541l28.541,28.541c0.394,0.394,0.909,0.59,1.424,0.59c0.515,0,1.031-0.196,1.424-0.59   c0.787-0.787,0.787-2.062,0-2.849L35.064,31.786L63.41,3.438c0.787-0.787,0.787-2.062,0-2.849c-0.787-0.786-2.062-0.786-2.848,0   L32.003,29.15L3.441,0.59c-0.787-0.786-2.061-0.786-2.848,0c-0.787,0.787-0.787,2.062,0,2.849L28.941,31.786z"/>
  </symbol>

  <symbol id="modal-accept-icon">
    <path fill="currentColor" d="M506.231,75.508c-7.689-7.69-20.158-7.69-27.849,0l-319.21,319.211L33.617,269.163c-7.689-7.691-20.158-7.691-27.849,0
    c-7.69,7.69-7.69,20.158,0,27.849l139.481,139.481c7.687,7.687,20.16,7.689,27.849,0l333.133-333.136
    C513.921,95.666,513.921,83.198,506.231,75.508z"/>
  </symbol>

  <!--Logo tittle pages -->
  <symbol id="logo-pages">
    <g>
      <rect  x="2" y="2" width="15" height="15"/>
      <rect  x="22" y="2" width="15" height="15"/>
      <rect  x="2" y="22" width="15" height="15"/>
      <rect  x="22" y="22" width="15" height="15"/>
    </g>
  </symbol>

</svg>
